<svg width="456" height="150" viewBox="0 0 456 150" fill="none" xmlns="http://www.w3.org/2000/svg">
<rect x="297" y="27.7286" width="29" height="15" rx="7.5" transform="rotate(-45.6252 297 27.7286)" fill="url(#paint0_linear_1_14)"/>
<path d="M100 65C100 74.8891 97.0676 84.5561 91.5735 92.7785C86.0794 101.001 78.2705 107.41 69.1342 111.194C59.9979 114.978 49.9445 115.969 40.2455 114.039C30.5464 112.11 21.6373 107.348 14.6447 100.355C7.65204 93.3627 2.89 84.4536 0.960736 74.7545C-0.968525 65.0555 0.0216418 55.0021 3.80602 45.8658C7.59041 36.7295 13.999 28.9206 22.2215 23.4265C30.4439 17.9324 40.1109 15 50 15L50 65H100Z" fill="url(#paint1_linear_1_14)"/>
<circle cx="164" cy="65" r="50" fill="url(#paint2_linear_1_14)"/>
<circle cx="392" cy="65" r="50" fill="url(#paint3_linear_1_14)"/>
<rect x="258" y="125" width="50" height="25" rx="12.5" fill="url(#paint4_linear_1_14)"/>
<rect x="427" width="29" height="15" rx="7.5" fill="url(#paint5_linear_1_14)"/>
<circle cx="278" cy="65" r="50" fill="url(#paint6_linear_1_14)"/>
<path d="M334.64 144H332.333L335.848 133.818H338.622L342.132 144H339.825L337.275 136.145H337.195L334.64 144ZM334.496 139.998H339.945V141.678H334.496V139.998ZM343.668 146.864C343.4 146.864 343.148 146.842 342.913 146.799C342.681 146.759 342.488 146.708 342.336 146.645L342.813 145.064C343.062 145.14 343.286 145.182 343.484 145.188C343.687 145.195 343.861 145.148 344.006 145.049C344.156 144.95 344.277 144.781 344.369 144.542L344.494 144.219L341.754 136.364H343.982L345.562 141.972H345.642L347.238 136.364H349.48L346.512 144.825C346.37 145.236 346.176 145.594 345.93 145.899C345.688 146.207 345.382 146.444 345.011 146.61C344.639 146.779 344.192 146.864 343.668 146.864ZM355.461 140.749V136.364H357.579V144H355.545V142.613H355.466C355.294 143.06 355.007 143.42 354.606 143.692C354.208 143.964 353.723 144.099 353.149 144.099C352.639 144.099 352.19 143.983 351.802 143.751C351.414 143.519 351.111 143.19 350.892 142.762C350.677 142.335 350.567 141.822 350.564 141.226V136.364H352.682V140.848C352.685 141.299 352.806 141.655 353.045 141.917C353.283 142.179 353.603 142.31 354.004 142.31C354.259 142.31 354.498 142.252 354.72 142.136C354.942 142.016 355.121 141.841 355.257 141.609C355.396 141.377 355.464 141.09 355.461 140.749ZM365.627 138.541L363.688 138.661C363.655 138.495 363.583 138.346 363.474 138.213C363.365 138.077 363.22 137.969 363.041 137.89C362.866 137.807 362.655 137.766 362.41 137.766C362.082 137.766 361.805 137.835 361.58 137.974C361.354 138.11 361.242 138.293 361.242 138.521C361.242 138.704 361.315 138.858 361.46 138.984C361.606 139.11 361.856 139.211 362.211 139.287L363.593 139.565C364.336 139.718 364.889 139.963 365.254 140.301C365.618 140.639 365.801 141.083 365.801 141.634C365.801 142.134 365.653 142.573 365.358 142.951C365.066 143.329 364.665 143.624 364.155 143.836C363.648 144.045 363.063 144.149 362.4 144.149C361.389 144.149 360.584 143.939 359.984 143.518C359.387 143.094 359.038 142.517 358.935 141.788L361.018 141.678C361.081 141.987 361.233 142.222 361.475 142.384C361.717 142.543 362.027 142.623 362.405 142.623C362.776 142.623 363.075 142.552 363.3 142.409C363.529 142.263 363.645 142.076 363.648 141.847C363.645 141.655 363.563 141.498 363.404 141.375C363.245 141.249 363 141.153 362.669 141.087L361.346 140.823C360.6 140.674 360.045 140.415 359.681 140.048C359.319 139.68 359.139 139.211 359.139 138.641C359.139 138.15 359.271 137.728 359.536 137.373C359.805 137.018 360.181 136.745 360.665 136.553C361.152 136.36 361.722 136.264 362.375 136.264C363.34 136.264 364.099 136.468 364.652 136.876C365.209 137.283 365.534 137.839 365.627 138.541ZM369.252 139.585V144H367.134V133.818H369.192V137.711H369.282C369.454 137.26 369.733 136.907 370.117 136.652C370.502 136.393 370.984 136.264 371.564 136.264C372.094 136.264 372.557 136.38 372.951 136.612C373.349 136.841 373.657 137.171 373.876 137.602C374.098 138.029 374.207 138.541 374.204 139.138V144H372.086V139.516C372.089 139.045 371.97 138.679 371.728 138.417C371.489 138.155 371.155 138.024 370.724 138.024C370.435 138.024 370.18 138.085 369.958 138.208C369.739 138.331 369.567 138.51 369.441 138.745C369.318 138.977 369.255 139.257 369.252 139.585ZM379.151 144V133.818H383.227C383.976 133.818 384.601 133.929 385.102 134.151C385.602 134.373 385.978 134.682 386.23 135.076C386.482 135.467 386.608 135.918 386.608 136.428C386.608 136.826 386.528 137.176 386.369 137.477C386.21 137.776 385.991 138.021 385.713 138.213C385.438 138.402 385.123 138.536 384.768 138.616V138.715C385.156 138.732 385.519 138.841 385.857 139.043C386.199 139.246 386.475 139.529 386.688 139.893C386.9 140.255 387.006 140.686 387.006 141.186C387.006 141.726 386.871 142.209 386.603 142.633C386.338 143.054 385.945 143.387 385.425 143.632C384.904 143.877 384.263 144 383.501 144H379.151ZM381.303 142.24H383.058C383.658 142.24 384.096 142.126 384.371 141.897C384.646 141.665 384.783 141.357 384.783 140.972C384.783 140.691 384.715 140.442 384.58 140.227C384.444 140.011 384.25 139.842 383.998 139.719C383.749 139.597 383.453 139.536 383.108 139.536H381.303V142.24ZM381.303 138.079H382.899C383.194 138.079 383.456 138.027 383.685 137.925C383.917 137.819 384.099 137.67 384.232 137.477C384.367 137.285 384.435 137.055 384.435 136.786C384.435 136.418 384.304 136.122 384.043 135.896C383.784 135.671 383.416 135.558 382.939 135.558H381.303V138.079ZM390.544 144.144C390.057 144.144 389.623 144.06 389.242 143.891C388.86 143.718 388.559 143.465 388.337 143.13C388.118 142.792 388.009 142.371 388.009 141.867C388.009 141.443 388.087 141.087 388.242 140.798C388.398 140.51 388.61 140.278 388.879 140.102C389.147 139.927 389.452 139.794 389.794 139.705C390.138 139.615 390.499 139.552 390.877 139.516C391.321 139.469 391.679 139.426 391.951 139.386C392.223 139.343 392.42 139.28 392.543 139.197C392.665 139.115 392.727 138.992 392.727 138.83V138.8C392.727 138.485 392.627 138.241 392.428 138.069C392.233 137.897 391.954 137.81 391.593 137.81C391.212 137.81 390.909 137.895 390.683 138.064C390.458 138.23 390.309 138.438 390.236 138.69L388.277 138.531C388.377 138.067 388.572 137.666 388.864 137.328C389.155 136.987 389.532 136.725 389.992 136.543C390.456 136.357 390.993 136.264 391.603 136.264C392.027 136.264 392.433 136.314 392.821 136.413C393.212 136.513 393.559 136.667 393.86 136.876C394.165 137.085 394.405 137.353 394.581 137.681C394.757 138.006 394.845 138.395 394.845 138.849V144H392.836V142.941H392.776C392.654 143.18 392.49 143.39 392.284 143.572C392.079 143.751 391.832 143.892 391.544 143.995C391.255 144.094 390.922 144.144 390.544 144.144ZM391.151 142.683C391.462 142.683 391.737 142.621 391.976 142.499C392.215 142.373 392.402 142.204 392.538 141.991C392.674 141.779 392.742 141.539 392.742 141.271V140.46C392.675 140.503 392.584 140.543 392.468 140.58C392.356 140.613 392.228 140.644 392.085 140.674C391.943 140.701 391.8 140.725 391.658 140.749C391.515 140.768 391.386 140.787 391.27 140.803C391.021 140.84 390.804 140.898 390.619 140.977C390.433 141.057 390.289 141.165 390.186 141.3C390.084 141.433 390.032 141.599 390.032 141.798C390.032 142.086 390.137 142.306 390.345 142.459C390.557 142.608 390.826 142.683 391.151 142.683ZM398.606 139.585V144H396.488V136.364H398.506V137.711H398.596C398.765 137.267 399.048 136.915 399.446 136.657C399.844 136.395 400.326 136.264 400.893 136.264C401.423 136.264 401.885 136.38 402.28 136.612C402.674 136.844 402.981 137.176 403.199 137.607C403.418 138.034 403.528 138.545 403.528 139.138V144H401.41V139.516C401.413 139.048 401.294 138.684 401.052 138.422C400.81 138.157 400.477 138.024 400.052 138.024C399.767 138.024 399.515 138.085 399.297 138.208C399.081 138.331 398.912 138.51 398.79 138.745C398.67 138.977 398.609 139.257 398.606 139.585ZM408.637 147.023C407.951 147.023 407.363 146.928 406.872 146.739C406.385 146.554 405.997 146.3 405.709 145.979C405.42 145.657 405.233 145.296 405.147 144.895L407.106 144.631C407.165 144.784 407.26 144.926 407.389 145.059C407.518 145.192 407.689 145.298 407.901 145.377C408.117 145.46 408.379 145.501 408.687 145.501C409.147 145.501 409.527 145.389 409.825 145.163C410.127 144.941 410.278 144.568 410.278 144.045V142.648H410.188C410.095 142.86 409.956 143.06 409.771 143.249C409.585 143.438 409.346 143.592 409.055 143.712C408.763 143.831 408.415 143.891 408.011 143.891C407.437 143.891 406.915 143.758 406.445 143.493C405.977 143.224 405.604 142.815 405.326 142.265C405.051 141.711 404.913 141.012 404.913 140.167C404.913 139.302 405.054 138.579 405.336 137.999C405.618 137.419 405.992 136.985 406.46 136.697C406.93 136.408 407.446 136.264 408.006 136.264C408.433 136.264 408.791 136.337 409.08 136.483C409.368 136.625 409.6 136.804 409.776 137.02C409.955 137.232 410.092 137.441 410.188 137.646H410.268V136.364H412.371V144.075C412.371 144.724 412.212 145.268 411.893 145.705C411.575 146.143 411.134 146.471 410.571 146.69C410.011 146.912 409.366 147.023 408.637 147.023ZM408.682 142.3C409.023 142.3 409.312 142.215 409.547 142.046C409.786 141.874 409.968 141.629 410.094 141.31C410.223 140.989 410.288 140.604 410.288 140.157C410.288 139.71 410.225 139.322 410.099 138.994C409.973 138.662 409.79 138.405 409.552 138.223C409.313 138.041 409.023 137.95 408.682 137.95C408.334 137.95 408.04 138.044 407.802 138.233C407.563 138.419 407.383 138.677 407.26 139.009C407.137 139.34 407.076 139.723 407.076 140.157C407.076 140.598 407.137 140.979 407.26 141.3C407.386 141.619 407.567 141.866 407.802 142.041C408.04 142.214 408.334 142.3 408.682 142.3ZM416.234 144.144C415.746 144.144 415.312 144.06 414.931 143.891C414.55 143.718 414.248 143.465 414.026 143.13C413.808 142.792 413.698 142.371 413.698 141.867C413.698 141.443 413.776 141.087 413.932 140.798C414.088 140.51 414.3 140.278 414.568 140.102C414.837 139.927 415.142 139.794 415.483 139.705C415.828 139.615 416.189 139.552 416.567 139.516C417.011 139.469 417.369 139.426 417.641 139.386C417.912 139.343 418.11 139.28 418.232 139.197C418.355 139.115 418.416 138.992 418.416 138.83V138.8C418.416 138.485 418.317 138.241 418.118 138.069C417.922 137.897 417.644 137.81 417.283 137.81C416.902 137.81 416.598 137.895 416.373 138.064C416.147 138.23 415.998 138.438 415.925 138.69L413.967 138.531C414.066 138.067 414.262 137.666 414.553 137.328C414.845 136.987 415.221 136.725 415.682 136.543C416.146 136.357 416.683 136.264 417.293 136.264C417.717 136.264 418.123 136.314 418.511 136.413C418.902 136.513 419.248 136.667 419.55 136.876C419.855 137.085 420.095 137.353 420.271 137.681C420.446 138.006 420.534 138.395 420.534 138.849V144H418.526V142.941H418.466C418.343 143.18 418.179 143.39 417.974 143.572C417.768 143.751 417.521 143.892 417.233 143.995C416.945 144.094 416.612 144.144 416.234 144.144ZM416.84 142.683C417.152 142.683 417.427 142.621 417.665 142.499C417.904 142.373 418.091 142.204 418.227 141.991C418.363 141.779 418.431 141.539 418.431 141.271V140.46C418.365 140.503 418.274 140.543 418.158 140.58C418.045 140.613 417.917 140.644 417.775 140.674C417.632 140.701 417.49 140.725 417.347 140.749C417.205 140.768 417.076 140.787 416.96 140.803C416.711 140.84 416.494 140.898 416.308 140.977C416.123 141.057 415.978 141.165 415.876 141.3C415.773 141.433 415.722 141.599 415.722 141.798C415.722 142.086 415.826 142.306 416.035 142.459C416.247 142.608 416.515 142.683 416.84 142.683ZM422.177 144V136.364H424.23V137.696H424.31C424.449 137.222 424.683 136.864 425.011 136.622C425.339 136.377 425.717 136.254 426.145 136.254C426.251 136.254 426.365 136.261 426.488 136.274C426.61 136.287 426.718 136.306 426.811 136.329V138.208C426.711 138.178 426.574 138.152 426.398 138.129C426.222 138.105 426.062 138.094 425.916 138.094C425.604 138.094 425.326 138.162 425.081 138.298C424.839 138.43 424.646 138.616 424.504 138.854C424.365 139.093 424.295 139.368 424.295 139.68V144H422.177Z" fill="url(#paint7_linear_1_14)"/>
<defs>
<linearGradient id="paint0_linear_1_14" x1="297" y1="35.2286" x2="326" y2="35.2286" gradientUnits="userSpaceOnUse">
<stop stop-color="#C994DF"/>
<stop offset="1" stop-color="#E56F8C"/>
</linearGradient>
<linearGradient id="paint1_linear_1_14" x1="0" y1="65" x2="100" y2="65" gradientUnits="userSpaceOnUse">
<stop stop-color="#64C2DB"/>
<stop offset="1" stop-color="#7476ED"/>
</linearGradient>
<linearGradient id="paint2_linear_1_14" x1="114" y1="65" x2="214" y2="65" gradientUnits="userSpaceOnUse">
<stop stop-color="#7476ED"/>
<stop offset="1" stop-color="#C994DF"/>
</linearGradient>
<linearGradient id="paint3_linear_1_14" x1="442" y1="65" x2="342" y2="65" gradientUnits="userSpaceOnUse">
<stop stop-color="#E56F8C"/>
<stop offset="1" stop-color="#E5708C"/>
</linearGradient>
<linearGradient id="paint4_linear_1_14" x1="258" y1="137.5" x2="308" y2="137.5" gradientUnits="userSpaceOnUse">
<stop stop-color="#C994DF"/>
<stop offset="1" stop-color="#E56F8C"/>
</linearGradient>
<linearGradient id="paint5_linear_1_14" x1="427" y1="7.5" x2="456" y2="7.5" gradientUnits="userSpaceOnUse">
<stop stop-color="#E5708C"/>
<stop offset="1" stop-color="#E56F8C"/>
</linearGradient>
<linearGradient id="paint6_linear_1_14" x1="228" y1="65" x2="328" y2="65" gradientUnits="userSpaceOnUse">
<stop stop-color="#C994DF"/>
<stop offset="1" stop-color="#E56F8C"/>
</linearGradient>
<linearGradient id="paint7_linear_1_14" x1="332" y1="140" x2="431" y2="140" gradientUnits="userSpaceOnUse">
<stop stop-color="#E5708C"/>
<stop offset="0.795" stop-color="#E56F8C"/>
<stop offset="1" stop-color="#E56F8C"/>
</linearGradient>
</defs>
</svg>
